<svg version="1.1" xmlns="http://www.w3.org/2000/svg" xmlns:xlink="http://www.w3.org/1999/xlink" width="38.74399" height="38.74399" viewBox="0,0,38.74399,38.74399"><defs><linearGradient x1="240.21283" y1="179.8949" x2="240.21283" y2="198.44023" gradientUnits="userSpaceOnUse" id="color-1"><stop offset="0" stop-color="#7a8c8c" stop-opacity="0"/><stop offset="1" stop-color="#7a8c8c"/></linearGradient></defs><g transform="translate(-220.62802,-160.62804)"><g data-paper-data="{&quot;isPaintingLayer&quot;:true}" fill-rule="nonzero" stroke-linecap="butt" stroke-linejoin="miter" stroke-miterlimit="10" stroke-dasharray="" stroke-dashoffset="0" style="mix-blend-mode: normal"><path d="M248.60668,190.9484l-2.62322,-1.6759l4.96325,-7.76873l2.6232,1.6759z" fill="#2e2e2e" stroke="#000000" stroke-width="1"/><path d="M254.39012,198.71905l-9.59339,-4.67558l3.95188,-4.71883l9.59339,4.67558z" fill="#383838" stroke="#000000" stroke-width="1"/><path d="M246.06324,197.93353l-18.2512,-11.66023l5.23386,-8.1923l18.2512,11.66023z" fill="#2e2e2e" stroke="#000000" stroke-width="1"/><path d="M237.77588,193.07703l-4.0443,-2.5838l5.49887,-8.6071l4.0443,2.5838z" fill="#383838" stroke="#000000" stroke-width="1"/><path d="M256.28159,193.73506l-8.73998,-5.58375l0.80382,-1.25817l8.73998,5.58375z" fill="#323232" stroke="none" stroke-width="0"/><path d="M228.71,176.35046v-14.28098h23.02383v14.28098z" fill="#e30000" stroke="#000000" stroke-width="1"/><path d="M245.52972,176.95605v-15.91871h4.64296v15.91871z" fill="#383838" stroke="none" stroke-width="none"/><path d="M230.1009,177.04796v-15.91871h4.64296v15.91871z" fill="#383838" stroke="none" stroke-width="none"/><path d="M246.9132,169.20997c0,3.86457 -2.99579,6.99742 -6.69129,6.99742c-3.6955,0 -6.69129,-3.13285 -6.69129,-6.99742c0,-3.86457 2.99579,-6.99742 6.69129,-6.99742c3.6955,0 6.69129,3.13285 6.69129,6.99742z" fill="#dee3a3" stroke="#000000" stroke-width="1"/><path d="M236.46156,190.52387l-13.43888,-4.49209l3.16146,-9.45806l13.43888,4.49209z" fill="#e30000" stroke="#000000" stroke-width="1"/><path d="M242.90026,185.57538l6.42661,-12.62858l8.88778,4.52295l-6.42661,12.62858z" fill="#e30000" stroke="#000000" stroke-width="1"/><path d="M236.3107,190.66764l-5.51301,-2.00573l3.52024,-9.67589l5.51301,2.00573z" fill="#dde3a3" stroke="#000000" stroke-width="0.5"/><path d="M242.62165,186.05419l2.61044,-5.25375l9.22085,4.58159l-2.61044,5.25375z" fill="#dde3a3" stroke="#000000" stroke-width="0.5"/><path d="M235.47964,173.98273c-0.16504,-0.12529 -0.50359,-0.46431 -0.21583,-0.98227c0.37017,-0.66633 1.03651,-0.29615 1.03651,-0.29615c2.3677,1.31538 4.47333,1.71805 6.93429,0.39115l0.50463,-0.50463c0.13794,-0.13794 0.32851,-0.22326 0.539,-0.22326c0.42098,0 0.76226,0.34128 0.76226,0.76226c0,0.13931 -0.03738,0.26991 -0.10265,0.38228l-0.39463,0.71032l-0.17975,-0.09986l-0.10813,0.10813l-0.07023,-0.07023c-0.01555,0.02711 -0.03133,0.05392 -0.04737,0.08042l0.03761,0.05936c-0.03864,0.02182 -0.07723,0.0433 -0.11577,0.06444c-1.59307,2.42014 -5.35367,2.1328 -7.86437,0.2579l-0.60061,-0.51267c0,0 -0.05405,-0.04633 -0.11496,-0.1272z" fill="#a78832" stroke="none" stroke-width="0.5"/><path d="M236.85355,171.28362c0,-0.42098 0.34128,-0.76226 0.76226,-0.76226c0.42098,0 0.76226,0.34128 0.76226,0.76226c0,0.42098 -0.34128,0.76226 -0.76226,0.76226c-0.42098,0 -0.76226,-0.34128 -0.76226,-0.76226z" fill="#000000" stroke="none" stroke-width="0.5"/><path d="M241.83029,171.12308c0,-0.42098 0.34128,-0.76226 0.76226,-0.76226c0.42098,0 0.76226,0.34128 0.76226,0.76226c0,0.42098 -0.34128,0.76226 -0.76226,0.76226c-0.42098,0 -0.76226,-0.34128 -0.76226,-0.76226z" fill="#000000" stroke="none" stroke-width="0.5"/><path d="M221.65183,198.44023v-18.54532h37.12202v18.54532z" fill="url(#color-1)" stroke="none" stroke-width="0"/><path d="M221.37803,198.62203v-37.24399h37.24399v37.24399z" fill="none" stroke="#000000" stroke-width="1.5"/><text transform="translate(230.08366,196.44086) scale(0.15775,0.15775)" font-size="40" xml:space="preserve" fill="#1bff00" fill-rule="nonzero" stroke="#ffffff" stroke-width="1" stroke-linecap="butt" stroke-linejoin="miter" stroke-miterlimit="10" stroke-dasharray="" stroke-dashoffset="0" font-family="Sans Serif" font-weight="normal" text-anchor="start" style="mix-blend-mode: normal"><tspan x="0" dy="0">$2000</tspan></text></g></g></svg>