<svg version="1.1" xmlns="http://www.w3.org/2000/svg" xmlns:xlink="http://www.w3.org/1999/xlink" width="26.38562" height="81.50017" viewBox="0,0,26.38562,81.50017"><g transform="translate(-228.08328,-145.2243)"><g data-paper-data="{&quot;isPaintingLayer&quot;:true}" fill-rule="nonzero" stroke-linecap="butt" stroke-linejoin="miter" stroke-miterlimit="10" stroke-dasharray="" stroke-dashoffset="0" style="mix-blend-mode: normal"><path d="M228.67313,187.02578v-23.05148h22.65383v23.05148z" fill="#a50000" stroke="#000000" stroke-width="1"/><path d="M230.40918,187.00639v-22.97176h4.73857v22.97176z" fill="#a50000" stroke="#000000" stroke-width="1"/><path d="M244.7833,186.85577v-22.86459h4.73857v22.86459z" fill="#a50000" stroke="#000000" stroke-width="1"/><path d="M231.36732,174.81478v-9.05197h17.82755v9.05197z" fill="#a50000" stroke="#000000" stroke-width="1"/><path d="M233.74156,174.77054v-9.05197h12.23053v9.05197z" fill="#a50000" stroke="#000000" stroke-width="1"/><path d="M246.58381,180.00012c0,3.80246 -2.94765,6.88497 -6.58375,6.88497c-3.63611,0 -6.58375,-3.08251 -6.58375,-6.88497c0,-3.80246 2.94765,-6.88497 6.58375,-6.88497c3.63611,0 6.58375,3.08251 6.58375,6.88497z" fill="#e9c930" stroke="#000000" stroke-width="1"/><path d="M233.67691,176.0597v-5.12023h12.78649v5.12023z" fill="#a50000" stroke="#000000" stroke-width="1"/><path d="M234.617,209.58076v-8.41953h3.51964v8.41953z" fill="#a50000" stroke="#000000" stroke-width="1"/><path d="M235.54247,207.4277v-3.20031h1.50603v3.20031z" fill="#000000" stroke="#000000" stroke-width="1"/><path d="M235.09472,217.82832v-7.9473h2.44531v7.9473z" fill="#a50000" stroke="#000000" stroke-width="1"/><path d="M228.65726,202.21082v-13.94206h9.81219v13.94206z" fill="#a50000" stroke="#000000" stroke-width="1"/><path d="M237.66296,197.76111l8.14382,-11.31632l7.96424,5.73149l-8.14382,11.31632z" fill="#a50000" stroke="#000000" stroke-width="1"/><path d="M228.76937,201.97525v-3.007h9.55797v3.007z" fill="#e9c92f" stroke="#000000" stroke-width="1"/><path d="M238.02747,197.85559l1.82704,-2.3883l7.59137,5.80739l-1.82704,2.3883z" fill="#e9c92f" stroke="#000000" stroke-width="1"/><path d="M228.67313,162.77578v-17.05148h11.27883v17.05148z" fill="#a50000" stroke="#000000" stroke-width="1"/><path d="M246.5349,178.34599c0,3.16729 -2.95726,5.7349 -6.60522,5.7349c-3.64796,0 -6.60523,-2.56761 -6.60523,-5.7349c0,-3.16729 2.95727,-5.7349 6.60523,-5.7349c3.64796,0 6.60522,2.56761 6.60522,5.7349z" fill="#a50000" stroke="#000000" stroke-width="1"/><path d="M240.29813,162.77578v-17.05148h11.27883v17.05148z" fill="#a50000" stroke="#000000" stroke-width="1"/><path d="M236.09472,226.0426v-7.9473h0.51673v7.9473z" fill="#767676" stroke="#000000" stroke-width="1"/><path d="M242.21685,183.00715c0,0.57859 -0.95984,1.04764 -2.14386,1.04764c-1.18402,0 -2.14386,-0.46905 -2.14386,-1.04764c0,-0.57859 0.95984,-1.04764 2.14386,-1.04764c1.18402,0 2.14386,0.46905 2.14386,1.04764z" fill="#e9c930" stroke="#000000" stroke-width="1"/><path d="M238.0704,185.18321c0,0.08462 -0.09603,0.15321 -0.2145,0.15321c-0.11846,0 -0.2145,-0.0686 -0.2145,-0.15321c0,-0.08462 0.09603,-0.15321 0.2145,-0.15321c0.11846,0 0.2145,0.0686 0.2145,0.15321z" fill="#9966ff" stroke="#000000" stroke-width="1"/><path d="M242.57078,185.0041c0,0.10154 -0.0686,0.18386 -0.15321,0.18386c-0.08462,0 -0.15321,-0.08232 -0.15321,-0.18386c0,-0.10154 0.0686,-0.18386 0.15321,-0.18386c0.08462,0 0.15321,0.08232 0.15321,0.18386z" fill="#9966ff" stroke="#000000" stroke-width="1"/><path d="M240.3833,150.25574v-4.26459h10.73857v4.26459z" fill="#a50000" stroke="#000000" stroke-width="1"/><path d="M228.58329,150.25574v-4.26459h11.61418v4.26459z" fill="#a50000" stroke="#000000" stroke-width="1"/><path d="M229.8146,201.3714v-1.89297h4.84601v1.89297z" fill="#000000" stroke="#000000" stroke-width="2"/><path d="M241.68576,199.92582l1.10937,-1.53384l3.92661,2.83999l-1.10937,1.53384z" fill="#000000" stroke="#000000" stroke-width="2"/><path d="M232.76763,182.06306v-4.84601h0.22716v4.84601z" fill="#000000" stroke="#000000" stroke-width="2"/><path d="M247.15678,181.83845v-4.84601h0.22716v4.84601z" fill="#000000" stroke="#000000" stroke-width="2"/><path d="M233.29335,180.62949v-2.72588h13.49679v2.72588z" fill="#4a4a4a" stroke="none" stroke-width="0"/><g fill="#d4a157" stroke="none" stroke-width="0"><path d="M236.9941,185.82719v-1.76323h2.54233v1.76323z"/><path d="M240.80897,185.82857v-1.76323h2.54232v1.76323z"/><path d="M238.80109,185.05085v-0.98413h2.54232v0.98413z"/></g><path d="M235.09867,226.22447v-2.90216h2.41847v2.90216z" fill="#000000" stroke="#000000" stroke-width="1"/><path d="M237.4506,180.27291v-2.00416h5.34443v2.00416z" fill="#000000" stroke="#000000" stroke-width="1"/></g></g></svg>