<svg version="1.1" xmlns="http://www.w3.org/2000/svg" xmlns:xlink="http://www.w3.org/1999/xlink" width="801.8018" height="605.36079" viewBox="0,0,801.8018,605.36079"><g transform="translate(160.9009,120.3003)"><g data-paper-data="{&quot;isPaintingLayer&quot;:true}" fill-rule="nonzero" stroke="none" stroke-linecap="butt" stroke-linejoin="miter" stroke-miterlimit="10" stroke-dasharray="" stroke-dashoffset="0" style="mix-blend-mode: normal"><path d="M-160.9009,480.3003v-600.6006h801.8018v600.6006z" fill="#858585" stroke-width="0"/><path d="M-76.85345,186.33715v-278.63844h49.54955v278.63844z" fill="#000000" stroke-width="0"/><path d="M24.24264,186.83265v-170.53033h49.54955v170.53033z" fill="#000000" stroke-width="0"/><path d="M-76.85646,188.33415v-48.90871h150.64865v48.90871z" fill="#000000" stroke-width="0"/><path d="M24.06393,61.83415v-48.90871h385.88589v48.90871z" fill="#000000" stroke-width="0"/><path d="M362.42431,62.05747v-89.53589h49.54955v89.53589z" fill="#000000" stroke-width="0"/><path d="M493.51792,148.73047v-176.73124h49.54955v176.73124z" fill="#000000" stroke-width="0"/><path d="M543.02087,-26.87303l-180.84503,0.01203l-0.00334,-49.54955l180.84503,-0.01203z" fill="#000000" stroke-width="0"/><path d="M156.69156,150.91823v-48.90871h385.88589v48.90871z" fill="#000000" stroke-width="0"/><path d="M156.17558,251.3581v-149.23425h49.54955v149.23425z" fill="#000000" stroke-width="0"/><path d="M156.18555,251.50232v-48.90871h385.88589v48.90871z" fill="#000000" stroke-width="0"/><path d="M493.13416,305.4032v-102.43829h49.54955v102.43829z" fill="#000000" stroke-width="0"/><path d="M493.09023,307.63124v-48.90871h106.84332v48.90871z" fill="#000000" stroke-width="0"/><path d="M1.68417,344.3125l-77.61259,-78.69714l35.27907,-34.79289l77.61259,78.69714z" fill="#383838" stroke-width="0"/><path d="M36.49537,263.44831l-75.96217,80.29136l-35.99375,-34.05302l75.96217,-80.29136z" fill="#383838" stroke-width="0"/><text transform="translate(-50.18577,327.21691) rotate(43.33076) scale(0.25442,0.25442)" font-size="40" xml:space="preserve" fill="#000000" fill-rule="nonzero" stroke="none" stroke-width="1" stroke-linecap="butt" stroke-linejoin="miter" stroke-miterlimit="10" stroke-dasharray="" stroke-dashoffset="0" font-family="Sans Serif" font-weight="normal" text-anchor="start" style="mix-blend-mode: normal"><tspan x="0" dy="0">cliff</tspan></text><path d="M49.42396,475.8312v-102.54768h98.44577v102.54768z" fill="#555555" stroke-width="0"/><path d="M-14.1556,485.06049v-70.7579h89.21648v70.7579z" fill="#555555" stroke-width="0"/><text transform="translate(52.50039,383.22348) scale(0.19463,0.19463)" font-size="40" xml:space="preserve" fill="#000000" fill-rule="nonzero" stroke="none" stroke-width="1" stroke-linecap="butt" stroke-linejoin="miter" stroke-miterlimit="10" stroke-dasharray="" stroke-dashoffset="0" font-family="Sans Serif" font-weight="normal" text-anchor="start" style="mix-blend-mode: normal"><tspan x="0" dy="0">cant place here</tspan></text></g></g></svg>